<?xml version="1.0" encoding="UTF-8" standalone="no"?>
<svg
   xmlns:dc="http://purl.org/dc/elements/1.1/"
   xmlns:cc="http://creativecommons.org/ns#"
   xmlns:rdf="http://www.w3.org/1999/02/22-rdf-syntax-ns#"
   xmlns:svg="http://www.w3.org/2000/svg"
   xmlns="http://www.w3.org/2000/svg"
   width="64"
   height="64"
   viewBox="0 0 16.933333 16.933334"
   version="1.1"
   id="svg8">
  <defs
     id="defs2" />
  <metadata
     id="metadata5">
    <rdf:RDF>
      <cc:Work
         rdf:about="">
        <dc:format>image/svg+xml</dc:format>
        <dc:type
           rdf:resource="http://purl.org/dc/dcmitype/StillImage" />
        <dc:title></dc:title>
      </cc:Work>
    </rdf:RDF>
  </metadata>
  <g
     id="layer1">
    <g
       id="g877"
       transform="matrix(1.2093413,0,0,1.2718929,-1.4431765,-0.14671454)">
      <path
         style="fill:#000000;fill-opacity:1;stroke:#000000;stroke-width:0.529167;stroke-linecap:butt;stroke-linejoin:miter;stroke-miterlimit:4;stroke-dasharray:none;stroke-opacity:1"
         d="M 6.3500002,2.1166667 V 4.7625001"
         id="path865" />
      <path
         style="fill:#000000;fill-opacity:1;stroke:#ffffff;stroke-width:0.529167;stroke-linecap:butt;stroke-linejoin:miter;stroke-miterlimit:4;stroke-dasharray:none;stroke-opacity:1;paint-order:stroke fill markers"
         d="M 7.4083335,3.1750001 11.641667,7.4083335 6.3500002,12.7 c 0,0 -1.3229167,-0.264583 -2.6458334,-1.5875 C 2.3812501,9.7895836 2.1166667,8.4666669 2.1166667,8.4666669 Z"
         id="path853" />
      <path
         style="fill:#000000;fill-opacity:1;stroke:#ffffff;stroke-width:0.529167;stroke-linecap:butt;stroke-linejoin:miter;stroke-miterlimit:4;stroke-dasharray:none;stroke-opacity:1;paint-order:stroke fill markers"
         d="m 10.054167,5.2916668 2.116667,2.1166667 c 0,0 -0.79375,3.1750005 -0.264584,4.2333335 0.25333,0.506661 0.694699,0.529167 1.058334,0.529167 0.363635,0 0.770597,-0.09756 1.058333,-0.529167 0.529167,-0.79375 0.188504,-2.6654659 -0.264583,-3.7041668 -0.495187,-1.1352169 -1.5875,-2.6458334 -2.910417,-2.6458334 -0.264583,0 -0.521923,0 -0.79375,0 z"
         id="path855" />
      <path
         id="path869"
         style="color:#000000;font-style:normal;font-variant:normal;font-weight:normal;font-stretch:normal;font-size:medium;line-height:normal;font-family:sans-serif;font-variant-ligatures:normal;font-variant-position:normal;font-variant-caps:normal;font-variant-numeric:normal;font-variant-alternates:normal;font-variant-east-asian:normal;font-feature-settings:normal;font-variation-settings:normal;text-indent:0;text-align:start;text-decoration:none;text-decoration-line:none;text-decoration-style:solid;text-decoration-color:#000000;letter-spacing:normal;word-spacing:normal;text-transform:none;writing-mode:lr-tb;direction:ltr;text-orientation:mixed;dominant-baseline:auto;baseline-shift:baseline;text-anchor:start;white-space:normal;shape-padding:0;shape-margin:0;inline-size:0;clip-rule:nonzero;display:inline;overflow:visible;visibility:visible;opacity:1;isolation:auto;mix-blend-mode:normal;color-interpolation:sRGB;color-interpolation-filters:linearRGB;solid-color:#000000;solid-opacity:1;vector-effect:none;fill:#000000;fill-opacity:1;fill-rule:nonzero;stroke:#ffffff;stroke-width:2;stroke-linecap:butt;stroke-linejoin:miter;stroke-miterlimit:4;stroke-dasharray:none;stroke-dashoffset:0;stroke-opacity:1;paint-order:stroke fill markers;color-rendering:auto;image-rendering:auto;shape-rendering:auto;text-rendering:auto;enable-background:accumulate;stop-color:#000000;stop-opacity:1"
         d="m 30.996554,8.0005678 c 0,4.67e-4 1e-6,9.339e-4 1e-6,0.0014 L 31,22 c -0.499999,0.5 -1,1 -1,2 0,1 1,2 2,2 1,0 2,-1 2,-2 0,-1 -0.499999,-1.5 -1,-2 L 32.997,8.0019684 c 0,-6.5e-4 0,-0.0013 -10e-7,-0.00195 z"
         transform="scale(0.26458334)" />
      <path
         id="path857"
         style="color:#000000;font-style:normal;font-variant:normal;font-weight:normal;font-stretch:normal;font-size:medium;line-height:normal;font-family:sans-serif;font-variant-ligatures:normal;font-variant-position:normal;font-variant-caps:normal;font-variant-numeric:normal;font-variant-alternates:normal;font-variant-east-asian:normal;font-feature-settings:normal;font-variation-settings:normal;text-indent:0;text-align:start;text-decoration:none;text-decoration-line:none;text-decoration-style:solid;text-decoration-color:#000000;letter-spacing:normal;word-spacing:normal;text-transform:none;writing-mode:lr-tb;direction:ltr;text-orientation:mixed;dominant-baseline:auto;baseline-shift:baseline;text-anchor:start;white-space:normal;shape-padding:0;shape-margin:0;inline-size:0;clip-rule:nonzero;display:inline;overflow:visible;visibility:visible;opacity:1;isolation:auto;mix-blend-mode:normal;color-interpolation:sRGB;color-interpolation-filters:linearRGB;solid-color:#000000;solid-opacity:1;vector-effect:none;fill:#000000;fill-opacity:1;fill-rule:nonzero;stroke:none;stroke-width:2;stroke-linecap:butt;stroke-linejoin:miter;stroke-miterlimit:4;stroke-dasharray:none;stroke-dashoffset:0;stroke-opacity:1;paint-order:stroke fill markers;color-rendering:auto;image-rendering:auto;shape-rendering:auto;text-rendering:auto;enable-background:accumulate;stop-color:#000000;stop-opacity:1"
         d="M 32.997046,8.0000184 C 32.996136,6.7044051 32.360957,5.5080232 31.461614,4.5915356 30.561819,3.6745877 29.351904,2.997047 27.999508,2.9970472 v 0 c -1.306493,3e-7 -2.503623,0.6409908 -3.417816,1.5428151 -0.914192,0.9018239 -1.579724,2.1150583 -1.579724,3.4621061 h 2.000492 c 0,-0.6529523 0.375412,-1.4392259 0.981792,-2.0374015 0.606379,-0.5981756 1.404035,-0.9670273 2.015256,-0.9670277 0.647602,0 1.437195,0.3849075 2.037401,0.9965552 0.599731,0.6111633 0.958931,1.4173406 0.959645,2.0064734 z"
         transform="scale(0.26458334)" />
    </g>
  </g>
</svg>
